<?xml version="1.0" encoding="UTF-8" standalone="no"?>
<svg
   xmlns:dc="http://purl.org/dc/elements/1.1/"
   xmlns:cc="http://creativecommons.org/ns#"
   xmlns:rdf="http://www.w3.org/1999/02/22-rdf-syntax-ns#"
   xmlns:svg="http://www.w3.org/2000/svg"
   xmlns="http://www.w3.org/2000/svg"
   xmlns:sodipodi="http://sodipodi.sourceforge.net/DTD/sodipodi-0.dtd"
   xmlns:inkscape="http://www.inkscape.org/namespaces/inkscape"
   id="Layer_1"
   version="1.1"
   viewBox="0 0 423.67267 72.523399"
   xml:space="preserve"
   sodipodi:docname="lagsforums.svg"
   inkscape:version="0.92.4 (5da689c313, 2019-01-14)"
   width="423.67267"
   height="72.523399"><metadata
     id="metadata3739"><rdf:RDF><cc:Work
         rdf:about=""><dc:format>image/svg+xml</dc:format><dc:type
           rdf:resource="http://purl.org/dc/dcmitype/StillImage" /><dc:title /></cc:Work></rdf:RDF></metadata><defs
     id="defs3737" /><sodipodi:namedview
     pagecolor="#ffffff"
     bordercolor="#666666"
     borderopacity="1"
     objecttolerance="10"
     gridtolerance="10"
     guidetolerance="10"
     inkscape:pageopacity="0"
     inkscape:pageshadow="2"
     inkscape:window-width="1920"
     inkscape:window-height="1057"
     id="namedview3735"
     showgrid="false"
     showborder="true"
     inkscape:zoom="0.4609375"
     inkscape:cx="-526.2217"
     inkscape:cy="468.00151"
     inkscape:window-x="-8"
     inkscape:window-y="-8"
     inkscape:window-maximized="1"
     inkscape:current-layer="g4556"
     fit-margin-top="0"
     fit-margin-left="0"
     fit-margin-right="0"
     fit-margin-bottom="0" /><g
     id="g4556"
     transform="matrix(0.20790951,0,0,0.20790951,156.17176,34.455186)"><g
   style="fill:#00718e;fill-opacity:0.94974874"
   transform="matrix(0.54086936,0,0,0.54086936,-566.57159,-129.77955)"
   id="g3732"><path
     style="fill:#00718e;fill-opacity:0.94974874"
     inkscape:connector-curvature="0"
     id="path3727"
     d="M 221.4,81.6 C 102.4,81.6 6,153.7 6,242.7 6,295.8 40.5,343 93.6,372.3 c -5.2,18.1 -17.3,40.6 -45.3,56.4 0,0 52.9,13.5 97.9,-35.1 23.4,6.5 48.8,10.1 75.3,10.1 119,0 215.4,-72.1 215.4,-161 0,-88.9 -96.5,-161.1 -215.5,-161.1 z m -99.1,126.9 c 18.9,0 34.1,15.3 34.1,34.1 0,18.9 -15.3,34.1 -34.1,34.1 -18.9,0 -34.1,-15.3 -34.1,-34.1 -0.1,-18.8 15.2,-34.1 34.1,-34.1 z m 99.1,68.3 c -18.9,0 -34.1,-15.3 -34.1,-34.1 0,-18.9 15.3,-34.1 34.1,-34.1 18.8,0 34.1,15.3 34.1,34.1 0.1,18.8 -15.2,34.1 -34.1,34.1 z m 99.2,0 c -18.9,0 -34.1,-15.3 -34.1,-34.1 0,-18.9 15.3,-34.1 34.1,-34.1 18.9,0 34.1,15.3 34.1,34.1 0,18.8 -15.3,34.1 -34.1,34.1 z" /><g
     style="fill:#00718e;fill-opacity:0.94974874"
     id="g3730"><path
       style="fill:#00718e;fill-opacity:0.94974874"
       inkscape:connector-curvature="0"
       id="XMLID_1_"
       d="m 455,387.8 c 31,-17.1 51,-44.6 51,-75.5 0,-33.8 -24,-63.5 -59.9,-80 0.3,3.5 0.4,6.9 0.4,10.4 0,46.2 -23.8,89.4 -67,121.6 -17.1,12.8 -36.4,23.2 -57.2,31.1 17.4,6.8 37.2,10.7 58.1,10.7 15.4,0 30.2,-2.1 43.9,-5.9 26.2,28.3 57,20.4 57,20.4 C 465,411.5 458,398.3 455,387.8 Z" /></g></g><text
   id="text3743"
   y="109.49019"
   x="-258.08255"
   style="font-style:normal;font-variant:normal;font-weight:bold;font-stretch:normal;font-size:279.02227783px;line-height:1.25;font-family:Roboto;-inkscape-font-specification:'Roboto, Bold';font-variant-ligatures:normal;font-variant-caps:normal;font-variant-numeric:normal;font-feature-settings:normal;text-align:start;letter-spacing:0px;word-spacing:0px;writing-mode:lr-tb;text-anchor:start;fill:#00718e;fill-opacity:0.94974874;stroke:none;stroke-width:6.97565937"
   xml:space="preserve"><tspan
     style="font-style:normal;font-variant:normal;font-weight:bold;font-stretch:normal;font-size:279.02227783px;font-family:Roboto;-inkscape-font-specification:'Roboto, Bold';font-variant-ligatures:normal;font-variant-caps:normal;font-variant-numeric:normal;font-feature-settings:normal;text-align:start;writing-mode:lr-tb;text-anchor:start;fill:#00718e;fill-opacity:0.94974874;stroke-width:6.97565937"
     y="109.49019"
     x="-258.08255"
     id="tspan3741"
     sodipodi:role="line">LagsForums</tspan></text>




</g></svg>